<svg xmlns="http://www.w3.org/2000/svg" width="128" height="128"><linearGradient id="b" x1="98" x2="108" y1="112" y2="112" gradientUnits="userSpaceOnUse"><stop offset="0" stop-color="#16529c"/><stop offset="1" stop-color="#236ac0"/></linearGradient><linearGradient id="d" x1="1" x2="1" y1="215" y2="171" gradientTransform="rotate(-90 -18 139)" gradientUnits="userSpaceOnUse"><stop offset="0" stop-color="#2166bb"/><stop offset="1" stop-color="#89eda9"/></linearGradient><filter id="a" width="100%" height="100%" x="0%" y="0%"><feColorMatrix in="SourceGraphic" values="0 0 0 0 1 0 0 0 0 1 0 0 0 0 1 0 0 0 1 0"/></filter><mask id="f"><g filter="url(#a)"><path fill-opacity=".5" d="M0 0h128v128H0z"/></g></mask><clipPath id="e"><path d="M0 0h192v152H0z"/></clipPath><mask id="h"><g filter="url(#a)"><path fill-opacity=".5" d="M0 0h128v128H0z"/></g></mask><clipPath id="g"><path d="M0 0h192v152H0z"/></clipPath><mask id="j"><g filter="url(#a)"><path fill-opacity=".5" d="M0 0h128v128H0z"/></g></mask><clipPath id="i"><path d="M0 0h192v152H0z"/></clipPath><path fill="url(#b)" d="M64 5c33.137 0 60 26.863 60 60s-26.863 60-60 60S4 98.137 4 65 30.863 5 64 5m0 0"/><path fill="url(#d)" d="M64 5C30.863 5 4 31.863 4 65s26.863 60 60 60zm0 0"/><path fill="#40a1c8" d="M124 63c0 33.137-26.863 60-60 60S4 96.137 4 63 30.863 3 64 3s60 26.863 60 60m0 0"/><path fill="#49bbb0" d="M28.004 64c.125 13.914 2.883 27.367 7.836 38.25-3.942 2.016-7.281 4.441-9.863 7.16A59.99 59.99 0 0 1 4.007 64zm0 0"/><path fill="#378bde" d="M64 96v27c-4.5 0-8.988-.508-13.375-1.512-5.8-4.058-10.895-10.691-14.781-19.238C43.746 98.21 53.71 96 64 96m0 0"/><path fill="#266ec6" d="M99.996 64c-.125 13.914-2.883 27.367-7.84 38.25 3.946 2.016 7.281 4.441 9.864 7.16A60 60 0 0 0 123.992 64zm0 0"/><path fill="#378bde" d="M64 64v59c4.5 0 8.988-.508 13.375-1.512C90.848 112.055 99.765 89.391 99.996 64zm0 0"/><path fill="#266ec6" d="M64 96v27c4.5 0 8.988-.508 13.375-1.512 5.8-4.058 10.895-10.691 14.781-19.238C84.254 98.21 74.29 96 64 96m0 0"/><path fill="#1e62b5" d="M92.16 102.25c-3.89 8.547-8.984 15.176-14.781 19.238a60 60 0 0 0 24.644-12.078c-2.582-2.719-5.921-5.144-9.863-7.16m0 0"/><path fill="#53d795" d="M64 3C30.863 3 4 29.863 4 63q.001.5.008 1H64zm0 0"/><path fill="#72e99a" d="M50.625 4.508a60.05 60.05 0 0 0-24.648 12.078c2.582 2.723 5.921 5.144 9.867 7.164 3.89-8.55 8.984-15.18 14.781-19.242m0 0"/><path fill="#49bbb0" d="M64 3c-4.5 0-8.984.508-13.375 1.508C36.961 14.078 28 37.242 28 63q-.001.5.004 1H64zm0 0"/><path fill="#53d795" d="M64 3c-4.5 0-8.984.508-13.375 1.508-5.797 4.062-10.89 10.691-14.781 19.242C43.75 27.79 53.71 30 64 30zm0 0"/><path fill="#378bde" d="M64 3c33.137 0 60 26.863 60 60q-.001.5-.008 1H64zm0 0"/><path fill="#40a1c8" d="M77.375 4.508a60.05 60.05 0 0 1 24.648 12.078c-2.582 2.723-5.921 5.144-9.863 7.16C88.266 15.2 83.172 8.57 77.375 4.508m0 0"/><path fill="#40a1c8" d="M64 3c4.5 0 8.988.508 13.375 1.508C91.039 14.078 100 37.242 100 63q.001.5-.004 1H64zm0 0"/><path fill="#49bbb0" d="M64 3c4.5 0 8.988.508 13.375 1.508 5.797 4.062 10.89 10.691 14.781 19.238C84.25 27.79 74.29 30 64 30zm0 0"/><g clip-path="url(#e)" mask="url(#f)" transform="translate(-8 -16)"><path fill="#2e3436" d="M169.5 24v1h13v-1zm0 0"/></g><g clip-path="url(#g)" mask="url(#h)" transform="translate(-8 -16)"><path fill="#2e3436" d="M169.5 21v1h13v-1zm0 0"/></g><g clip-path="url(#i)" mask="url(#j)" transform="translate(-8 -16)"><path fill="#2e3436" d="M169.5 27v1h13v-1zm0 0"/></g></svg>